<svg xmlns="http://www.w3.org/2000/svg" width="24" height="24" style=""><rect id="backgroundrect" width="100%" height="100%" x="0" y="0" fill="none" stroke="none"/>
    
    
    
<g class="currentLayer" style=""><title>Layer 1</title><path d="M11.99 2C6.47 2 2 6.48 2 12s4.47 10 9.99 10C17.52 22 22 17.52 22 12S17.52 2 11.99 2zM12 20c-4.42 0-8-3.58-8-8s3.58-8 8-8 8 3.58 8 8-3.58 8-8 8z" id="svg_1"/><path d="M0 0h24v24H0z" fill="none" id="svg_2"/><path d="M10.622449100017548,6.428571343421936 H9.122449100017548 v6 l5.25,3.15 l0.7500000000000006,-1.23 l-4.5,-2.67 z" id="svg_3" class="" transform="rotate(-60.29759216308594 12.122448921203615,11.003570556640627) "/></g></svg>